<svg width="76" height="107" viewBox="0 0 76 107" fill="none" xmlns="http://www.w3.org/2000/svg">
<path d="M16 28.6C16.5333 52.4667 17.3333 55 24.4 55C29.4667 55 32.1333 53.8 33.7333 50.8667C34.9333 48.6 34.6667 48.4667 31.7333 49.9333C25.3333 52.7333 24.2667 50.0667 24.2667 31.1333C24.2667 14.3333 24.2667 14.2 20.5333 10.6C18.5333 8.59998 16.5333 6.99998 16.1333 6.99998C15.8667 6.99998 15.8667 16.7333 16 28.6Z" fill="#3D61FF"/>
<g filter="url(#filter0_d_47_25)">
<path d="M7.73333 13.5333L4 17.4L4.4 35.4C4.93333 51.1333 5.33333 53.9333 7.73333 57.1333C16.9333 69.5333 32.9333 69.9333 41.0667 57.9333C43.3333 54.6 44 51.1333 44.5333 40.0666C44.9333 32.4666 45.0667 26.2 44.9333 25.9333C44.8 25.6666 42.6667 27.1333 40.2667 29.1333C36.1333 32.7333 36 33.1333 36.8 40.0666C38.5333 54.3333 29.7333 62.6 18.9333 57C13.3333 54.0666 12 48.0666 12.5333 27.2666C12.8 17.6666 12.5333 9.66664 12.1333 9.66664C11.7333 9.66664 9.73333 11.4 7.73333 13.5333Z" fill="#3D61FF"/>
</g>
<path d="M47.6 38.6C47.6 49.8 47.0667 53.9333 45.3333 57.2667C39.7333 67.4 27.2 72.0667 17.2 67.8C10.4 65 12.4 67.9333 19.4667 71.1333C26.9333 74.6 33.2 74.3333 41.3333 70.2C51.3333 65.2667 55.0667 58.4667 56 43.5333C56.6667 32.4667 56.5333 32.0667 52.9333 28.3333C50.8 26.0667 48.8 24.3333 48.4 24.3333C48 24.3333 47.6 30.7333 47.6 38.6Z" fill="#3D61FF"/>
<g filter="url(#filter1_d_47_25)">
<path d="M46.81 80C45.51 80 44.28 79.86 43.12 79.58C41.98 79.28 40.94 78.87 40 78.35C39.06 77.83 38.27 77.23 37.63 76.55L40.06 73.19C40.54 73.85 41.16 74.41 41.92 74.87C42.7 75.33 43.54 75.68 44.44 75.92C45.36 76.16 46.24 76.28 47.08 76.28C48.14 76.28 48.97 76.12 49.57 75.8C50.17 75.48 50.47 75 50.47 74.36C50.47 73.94 50.29 73.59 49.93 73.31C49.57 73.03 48.95 72.79 48.07 72.59L44.02 71.63C42.94 71.37 41.98 71.02 41.14 70.58C40.32 70.14 39.67 69.58 39.19 68.9C38.73 68.2 38.5 67.38 38.5 66.44C38.5 65.22 38.83 64.14 39.49 63.2C40.15 62.26 41.1 61.53 42.34 61.01C43.58 60.47 45.07 60.2 46.81 60.2C48.59 60.2 50.16 60.47 51.52 61.01C52.9 61.55 54.09 62.37 55.09 63.47L52.75 66.5C51.93 65.62 51.01 64.96 49.99 64.52C48.99 64.06 47.84 63.83 46.54 63.83C45.74 63.83 45.09 63.92 44.59 64.1C44.09 64.26 43.72 64.49 43.48 64.79C43.24 65.07 43.12 65.39 43.12 65.75C43.12 66.05 43.19 66.32 43.33 66.56C43.49 66.8 43.78 67.02 44.2 67.22C44.64 67.4 45.28 67.59 46.12 67.79L49.39 68.51C51.29 68.93 52.69 69.55 53.59 70.37C54.49 71.17 54.94 72.28 54.94 73.7C54.94 75.06 54.59 76.21 53.89 77.15C53.19 78.09 52.22 78.8 50.98 79.28C49.76 79.76 48.37 80 46.81 80ZM45.25 82.64V57.56H48.4V82.64H45.25Z" fill="white"/>
</g>
<defs>
<filter id="filter0_d_47_25" x="0" y="0.666641" width="66.9833" height="83.0222" filterUnits="userSpaceOnUse" color-interpolation-filters="sRGB">
<feFlood flood-opacity="0" result="BackgroundImageFix"/>
<feColorMatrix in="SourceAlpha" type="matrix" values="0 0 0 0 0 0 0 0 0 0 0 0 0 0 0 0 0 0 127 0" result="hardAlpha"/>
<feOffset dx="9" dy="4"/>
<feGaussianBlur stdDeviation="6.5"/>
<feComposite in2="hardAlpha" operator="out"/>
<feColorMatrix type="matrix" values="0 0 0 0 0 0 0 0 0 0 0 0 0 0 0 0 0 0 0.25 0"/>
<feBlend mode="normal" in2="BackgroundImageFix" result="effect1_dropShadow_47_25"/>
<feBlend mode="normal" in="SourceGraphic" in2="effect1_dropShadow_47_25" result="shape"/>
</filter>
<filter id="filter1_d_47_25" x="17.63" y="41.56" width="57.46" height="65.08" filterUnits="userSpaceOnUse" color-interpolation-filters="sRGB">
<feFlood flood-opacity="0" result="BackgroundImageFix"/>
<feColorMatrix in="SourceAlpha" type="matrix" values="0 0 0 0 0 0 0 0 0 0 0 0 0 0 0 0 0 0 127 0" result="hardAlpha"/>
<feOffset dy="4"/>
<feGaussianBlur stdDeviation="10"/>
<feComposite in2="hardAlpha" operator="out"/>
<feColorMatrix type="matrix" values="0 0 0 0 0 0 0 0 0 0 0 0 0 0 0 0 0 0 0.5 0"/>
<feBlend mode="normal" in2="BackgroundImageFix" result="effect1_dropShadow_47_25"/>
<feBlend mode="normal" in="SourceGraphic" in2="effect1_dropShadow_47_25" result="shape"/>
</filter>
</defs>
</svg>
