<svg xmlns="http://www.w3.org/2000/svg" viewBox="0 0 1470 919" preserveAspectRatio="xMidYMid" width="1470" height="919" style="shape-rendering: auto; display: block; background: rgb(255, 255, 255);"><g data-idx="1"><defs data-idx="2">
<linearGradient y2="1" y1="0" x2="0" x1="0" id="lg-0.6590519274487807" data-idx="3">
  <stop offset="0.3" stop-color="#06070f" data-idx="4"></stop>
  <stop offset="0.6499999999999999" stop-color="#06070f" data-idx="5"></stop>
  <stop offset="1" stop-color="#06070f" data-idx="6"></stop>
</linearGradient>
<linearGradient y2="1" y1="0" x2="0" x1="0" id="fg-lg-0.6590519274487807" data-idx="7">
  <stop offset="0.3" stop-opacity="1" stop-color="#06070f" data-idx="8"></stop>
  <stop offset="0.6499999999999999" stop-opacity="0.66" stop-color="#06070f" data-idx="9"></stop>
  <stop offset="1" stop-opacity="0" stop-color="#06070f" data-idx="10"></stop>
</linearGradient>
<style type="text/css" data-idx="11">
  path { fill: none; stroke: #3d61ff; stroke-width: 3px }
</style>
</defs>
<rect fill="url(#lg-0.6590519274487807)" height="919" width="1470" y="0" x="0" data-idx="12"></rect><path d="M0 275.7 L-10290 919" data-idx="13" style="fill: none; stroke: rgb(61, 97, 255);"></path><path d="M11.307692307692308 275.7 L-10120.384615384615 919" data-idx="14" style="fill: none; stroke: rgb(61, 97, 255);"></path><path d="M22.615384615384617 275.7 L-9950.76923076923 919" data-idx="15" style="fill: none; stroke: rgb(61, 97, 255);"></path><path d="M33.92307692307692 275.7 L-9781.153846153846 919" data-idx="16" style="fill: none; stroke: rgb(61, 97, 255);"></path><path d="M45.23076923076923 275.7 L-9611.538461538461 919" data-idx="17" style="fill: none; stroke: rgb(61, 97, 255);"></path><path d="M56.53846153846154 275.7 L-9441.923076923076 919" data-idx="18" style="fill: none; stroke: rgb(61, 97, 255);"></path><path d="M67.84615384615384 275.7 L-9272.307692307691 919" data-idx="19" style="fill: none; stroke: rgb(61, 97, 255);"></path><path d="M79.15384615384616 275.7 L-9102.692307692309 919" data-idx="20" style="fill: none; stroke: rgb(61, 97, 255);"></path><path d="M90.46153846153847 275.7 L-8933.076923076924 919" data-idx="21" style="fill: none; stroke: rgb(61, 97, 255);"></path><path d="M101.76923076923077 275.7 L-8763.461538461539 919" data-idx="22" style="fill: none; stroke: rgb(61, 97, 255);"></path><path d="M113.07692307692308 275.7 L-8593.846153846154 919" data-idx="23" style="fill: none; stroke: rgb(61, 97, 255);"></path><path d="M124.38461538461539 275.7 L-8424.23076923077 919" data-idx="24" style="fill: none; stroke: rgb(61, 97, 255);"></path><path d="M135.69230769230768 275.7 L-8254.615384615385 919" data-idx="25" style="fill: none; stroke: rgb(61, 97, 255);"></path><path d="M147 275.7 L-8085 919" data-idx="26" style="fill: none; stroke: rgb(61, 97, 255);"></path><path d="M158.30769230769232 275.7 L-7915.384615384615 919" data-idx="27" style="fill: none; stroke: rgb(61, 97, 255);"></path><path d="M169.6153846153846 275.7 L-7745.7692307692305 919" data-idx="28" style="fill: none; stroke: rgb(61, 97, 255);"></path><path d="M180.92307692307693 275.7 L-7576.153846153846 919" data-idx="29" style="fill: none; stroke: rgb(61, 97, 255);"></path><path d="M192.23076923076923 275.7 L-7406.538461538461 919" data-idx="30" style="fill: none; stroke: rgb(61, 97, 255);"></path><path d="M203.53846153846155 275.7 L-7236.923076923077 919" data-idx="31" style="fill: none; stroke: rgb(61, 97, 255);"></path><path d="M214.84615384615384 275.7 L-7067.307692307692 919" data-idx="32" style="fill: none; stroke: rgb(61, 97, 255);"></path><path d="M226.15384615384616 275.7 L-6897.692307692308 919" data-idx="33" style="fill: none; stroke: rgb(61, 97, 255);"></path><path d="M237.46153846153845 275.7 L-6728.076923076923 919" data-idx="34" style="fill: none; stroke: rgb(61, 97, 255);"></path><path d="M248.76923076923077 275.7 L-6558.461538461539 919" data-idx="35" style="fill: none; stroke: rgb(61, 97, 255);"></path><path d="M260.0769230769231 275.7 L-6388.846153846154 919" data-idx="36" style="fill: none; stroke: rgb(61, 97, 255);"></path><path d="M271.38461538461536 275.7 L-6219.2307692307695 919" data-idx="37" style="fill: none; stroke: rgb(61, 97, 255);"></path><path d="M282.6923076923077 275.7 L-6049.615384615385 919" data-idx="38" style="fill: none; stroke: rgb(61, 97, 255);"></path><path d="M294 275.7 L-5880 919" data-idx="39" style="fill: none; stroke: rgb(61, 97, 255);"></path><path d="M305.3076923076923 275.7 L-5710.384615384615 919" data-idx="40" style="fill: none; stroke: rgb(61, 97, 255);"></path><path d="M316.61538461538464 275.7 L-5540.7692307692305 919" data-idx="41" style="fill: none; stroke: rgb(61, 97, 255);"></path><path d="M327.9230769230769 275.7 L-5371.153846153846 919" data-idx="42" style="fill: none; stroke: rgb(61, 97, 255);"></path><path d="M339.2307692307692 275.7 L-5201.538461538462 919" data-idx="43" style="fill: none; stroke: rgb(61, 97, 255);"></path><path d="M350.53846153846155 275.7 L-5031.923076923077 919" data-idx="44" style="fill: none; stroke: rgb(61, 97, 255);"></path><path d="M361.84615384615387 275.7 L-4862.307692307692 919" data-idx="45" style="fill: none; stroke: rgb(61, 97, 255);"></path><path d="M373.15384615384613 275.7 L-4692.692307692308 919" data-idx="46" style="fill: none; stroke: rgb(61, 97, 255);"></path><path d="M384.46153846153845 275.7 L-4523.076923076923 919" data-idx="47" style="fill: none; stroke: rgb(61, 97, 255);"></path><path d="M395.7692307692308 275.7 L-4353.461538461538 919" data-idx="48" style="fill: none; stroke: rgb(61, 97, 255);"></path><path d="M407.0769230769231 275.7 L-4183.846153846154 919" data-idx="49" style="fill: none; stroke: rgb(61, 97, 255);"></path><path d="M418.38461538461536 275.7 L-4014.2307692307695 919" data-idx="50" style="fill: none; stroke: rgb(61, 97, 255);"></path><path d="M429.6923076923077 275.7 L-3844.6153846153848 919" data-idx="51" style="fill: none; stroke: rgb(61, 97, 255);"></path><path d="M441 275.7 L-3675 919" data-idx="52" style="fill: none; stroke: rgb(61, 97, 255);"></path><path d="M452.3076923076923 275.7 L-3505.3846153846152 919" data-idx="53" style="fill: none; stroke: rgb(61, 97, 255);"></path><path d="M463.61538461538464 275.7 L-3335.7692307692305 919" data-idx="54" style="fill: none; stroke: rgb(61, 97, 255);"></path><path d="M474.9230769230769 275.7 L-3166.1538461538457 919" data-idx="55" style="fill: none; stroke: rgb(61, 97, 255);"></path><path d="M486.2307692307692 275.7 L-2996.538461538462 919" data-idx="56" style="fill: none; stroke: rgb(61, 97, 255);"></path><path d="M497.53846153846155 275.7 L-2826.923076923077 919" data-idx="57" style="fill: none; stroke: rgb(61, 97, 255);"></path><path d="M508.84615384615387 275.7 L-2657.3076923076924 919" data-idx="58" style="fill: none; stroke: rgb(61, 97, 255);"></path><path d="M520.1538461538462 275.7 L-2487.6923076923076 919" data-idx="59" style="fill: none; stroke: rgb(61, 97, 255);"></path><path d="M531.4615384615385 275.7 L-2318.076923076923 919" data-idx="60" style="fill: none; stroke: rgb(61, 97, 255);"></path><path d="M542.7692307692307 275.7 L-2148.461538461538 919" data-idx="61" style="fill: none; stroke: rgb(61, 97, 255);"></path><path d="M554.0769230769231 275.7 L-1978.8461538461543 919" data-idx="62" style="fill: none; stroke: rgb(61, 97, 255);"></path><path d="M565.3846153846154 275.7 L-1809.2307692307695 919" data-idx="63" style="fill: none; stroke: rgb(61, 97, 255);"></path><path d="M576.6923076923077 275.7 L-1639.6153846153848 919" data-idx="64" style="fill: none; stroke: rgb(61, 97, 255);"></path><path d="M588 275.7 L-1470 919" data-idx="65" style="fill: none; stroke: rgb(61, 97, 255);"></path><path d="M599.3076923076923 275.7 L-1300.3846153846152 919" data-idx="66" style="fill: none; stroke: rgb(61, 97, 255);"></path><path d="M610.6153846153846 275.7 L-1130.7692307692305 919" data-idx="67" style="fill: none; stroke: rgb(61, 97, 255);"></path><path d="M621.9230769230769 275.7 L-961.1538461538457 919" data-idx="68" style="fill: none; stroke: rgb(61, 97, 255);"></path><path d="M633.2307692307693 275.7 L-791.538461538461 919" data-idx="69" style="fill: none; stroke: rgb(61, 97, 255);"></path><path d="M644.5384615384615 275.7 L-621.9230769230762 919" data-idx="70" style="fill: none; stroke: rgb(61, 97, 255);"></path><path d="M655.8461538461538 275.7 L-452.30769230769147 919" data-idx="71" style="fill: none; stroke: rgb(61, 97, 255);"></path><path d="M667.1538461538462 275.7 L-282.69230769230853 919" data-idx="72" style="fill: none; stroke: rgb(61, 97, 255);"></path><path d="M678.4615384615385 275.7 L-113.07692307692378 919" data-idx="73" style="fill: none; stroke: rgb(61, 97, 255);"></path><path d="M689.7692307692307 275.7 L56.53846153846098 919" data-idx="74" style="fill: none; stroke: rgb(61, 97, 255);"></path><path d="M701.0769230769231 275.7 L226.15384615384573 919" data-idx="75" style="fill: none; stroke: rgb(61, 97, 255);"></path><path d="M712.3846153846154 275.7 L395.7692307692305 919" data-idx="76" style="fill: none; stroke: rgb(61, 97, 255);"></path><path d="M723.6923076923077 275.7 L565.3846153846152 919" data-idx="77" style="fill: none; stroke: rgb(61, 97, 255);"></path><path d="M735 275.7 L735 919" data-idx="78" style="fill: none; stroke: rgb(61, 97, 255);"></path><path d="M746.3076923076923 275.7 L904.6153846153848 919" data-idx="79" style="fill: none; stroke: rgb(61, 97, 255);"></path><path d="M757.6153846153846 275.7 L1074.2307692307695 919" data-idx="80" style="fill: none; stroke: rgb(61, 97, 255);"></path><path d="M768.9230769230769 275.7 L1243.8461538461543 919" data-idx="81" style="fill: none; stroke: rgb(61, 97, 255);"></path><path d="M780.2307692307693 275.7 L1413.461538461539 919" data-idx="82" style="fill: none; stroke: rgb(61, 97, 255);"></path><path d="M791.5384615384615 275.7 L1583.0769230769238 919" data-idx="83" style="fill: none; stroke: rgb(61, 97, 255);"></path><path d="M802.8461538461538 275.7 L1752.6923076923085 919" data-idx="84" style="fill: none; stroke: rgb(61, 97, 255);"></path><path d="M814.1538461538462 275.7 L1922.3076923076915 919" data-idx="85" style="fill: none; stroke: rgb(61, 97, 255);"></path><path d="M825.4615384615385 275.7 L2091.923076923076 919" data-idx="86" style="fill: none; stroke: rgb(61, 97, 255);"></path><path d="M836.7692307692307 275.7 L2261.538461538461 919" data-idx="87" style="fill: none; stroke: rgb(61, 97, 255);"></path><path d="M848.0769230769231 275.7 L2431.1538461538457 919" data-idx="88" style="fill: none; stroke: rgb(61, 97, 255);"></path><path d="M859.3846153846154 275.7 L2600.7692307692305 919" data-idx="89" style="fill: none; stroke: rgb(61, 97, 255);"></path><path d="M870.6923076923077 275.7 L2770.3846153846152 919" data-idx="90" style="fill: none; stroke: rgb(61, 97, 255);"></path><path d="M882 275.7 L2940 919" data-idx="91" style="fill: none; stroke: rgb(61, 97, 255);"></path><path d="M893.3076923076923 275.7 L3109.6153846153848 919" data-idx="92" style="fill: none; stroke: rgb(61, 97, 255);"></path><path d="M904.6153846153846 275.7 L3279.2307692307695 919" data-idx="93" style="fill: none; stroke: rgb(61, 97, 255);"></path><path d="M915.9230769230769 275.7 L3448.8461538461543 919" data-idx="94" style="fill: none; stroke: rgb(61, 97, 255);"></path><path d="M927.2307692307693 275.7 L3618.461538461539 919" data-idx="95" style="fill: none; stroke: rgb(61, 97, 255);"></path><path d="M938.5384615384615 275.7 L3788.076923076924 919" data-idx="96" style="fill: none; stroke: rgb(61, 97, 255);"></path><path d="M949.8461538461538 275.7 L3957.6923076923085 919" data-idx="97" style="fill: none; stroke: rgb(61, 97, 255);"></path><path d="M961.1538461538462 275.7 L4127.3076923076915 919" data-idx="98" style="fill: none; stroke: rgb(61, 97, 255);"></path><path d="M972.4615384615385 275.7 L4296.923076923076 919" data-idx="99" style="fill: none; stroke: rgb(61, 97, 255);"></path><path d="M983.7692307692307 275.7 L4466.538461538461 919" data-idx="100" style="fill: none; stroke: rgb(61, 97, 255);"></path><path d="M995.0769230769231 275.7 L4636.153846153846 919" data-idx="101" style="fill: none; stroke: rgb(61, 97, 255);"></path><path d="M1006.3846153846154 275.7 L4805.7692307692305 919" data-idx="102" style="fill: none; stroke: rgb(61, 97, 255);"></path><path d="M1017.6923076923077 275.7 L4975.384615384615 919" data-idx="103" style="fill: none; stroke: rgb(61, 97, 255);"></path><path d="M1029 275.7 L5145 919" data-idx="104" style="fill: none; stroke: rgb(61, 97, 255);"></path><path d="M1040.3076923076924 275.7 L5314.615384615385 919" data-idx="105" style="fill: none; stroke: rgb(61, 97, 255);"></path><path d="M1051.6153846153845 275.7 L5484.2307692307695 919" data-idx="106" style="fill: none; stroke: rgb(61, 97, 255);"></path><path d="M1062.923076923077 275.7 L5653.846153846154 919" data-idx="107" style="fill: none; stroke: rgb(61, 97, 255);"></path><path d="M1074.2307692307693 275.7 L5823.461538461539 919" data-idx="108" style="fill: none; stroke: rgb(61, 97, 255);"></path><path d="M1085.5384615384614 275.7 L5993.076923076924 919" data-idx="109" style="fill: none; stroke: rgb(61, 97, 255);"></path><path d="M1096.8461538461538 275.7 L6162.6923076923085 919" data-idx="110" style="fill: none; stroke: rgb(61, 97, 255);"></path><path d="M1108.1538461538462 275.7 L6332.3076923076915 919" data-idx="111" style="fill: none; stroke: rgb(61, 97, 255);"></path><path d="M1119.4615384615386 275.7 L6501.923076923078 919" data-idx="112" style="fill: none; stroke: rgb(61, 97, 255);"></path><path d="M1130.7692307692307 275.7 L6671.538461538461 919" data-idx="113" style="fill: none; stroke: rgb(61, 97, 255);"></path><path d="M1142.076923076923 275.7 L6841.153846153848 919" data-idx="114" style="fill: none; stroke: rgb(61, 97, 255);"></path><path d="M1153.3846153846155 275.7 L7010.7692307692305 919" data-idx="115" style="fill: none; stroke: rgb(61, 97, 255);"></path><path d="M1164.6923076923076 275.7 L7180.384615384617 919" data-idx="116" style="fill: none; stroke: rgb(61, 97, 255);"></path><path d="M1176 275.7 L7350 919" data-idx="117" style="fill: none; stroke: rgb(61, 97, 255);"></path><path d="M1187.3076923076924 275.7 L7519.615384615383 919" data-idx="118" style="fill: none; stroke: rgb(61, 97, 255);"></path><path d="M1198.6153846153845 275.7 L7689.2307692307695 919" data-idx="119" style="fill: none; stroke: rgb(61, 97, 255);"></path><path d="M1209.923076923077 275.7 L7858.846153846152 919" data-idx="120" style="fill: none; stroke: rgb(61, 97, 255);"></path><path d="M1221.2307692307693 275.7 L8028.461538461539 919" data-idx="121" style="fill: none; stroke: rgb(61, 97, 255);"></path><path d="M1232.5384615384614 275.7 L8198.076923076922 919" data-idx="122" style="fill: none; stroke: rgb(61, 97, 255);"></path><path d="M1243.8461538461538 275.7 L8367.692307692309 919" data-idx="123" style="fill: none; stroke: rgb(61, 97, 255);"></path><path d="M1255.1538461538462 275.7 L8537.307692307691 919" data-idx="124" style="fill: none; stroke: rgb(61, 97, 255);"></path><path d="M1266.4615384615386 275.7 L8706.923076923078 919" data-idx="125" style="fill: none; stroke: rgb(61, 97, 255);"></path><path d="M1277.7692307692307 275.7 L8876.538461538461 919" data-idx="126" style="fill: none; stroke: rgb(61, 97, 255);"></path><path d="M1289.076923076923 275.7 L9046.153846153848 919" data-idx="127" style="fill: none; stroke: rgb(61, 97, 255);"></path><path d="M1300.3846153846155 275.7 L9215.76923076923 919" data-idx="128" style="fill: none; stroke: rgb(61, 97, 255);"></path><path d="M1311.6923076923076 275.7 L9385.384615384617 919" data-idx="129" style="fill: none; stroke: rgb(61, 97, 255);"></path><path d="M1323 275.7 L9555 919" data-idx="130" style="fill: none; stroke: rgb(61, 97, 255);"></path><path d="M1334.3076923076924 275.7 L9724.615384615383 919" data-idx="131" style="fill: none; stroke: rgb(61, 97, 255);"></path><path d="M1345.6153846153845 275.7 L9894.23076923077 919" data-idx="132" style="fill: none; stroke: rgb(61, 97, 255);"></path><path d="M1356.923076923077 275.7 L10063.846153846152 919" data-idx="133" style="fill: none; stroke: rgb(61, 97, 255);"></path><path d="M1368.2307692307693 275.7 L10233.461538461539 919" data-idx="134" style="fill: none; stroke: rgb(61, 97, 255);"></path><path d="M1379.5384615384614 275.7 L10403.076923076922 919" data-idx="135" style="fill: none; stroke: rgb(61, 97, 255);"></path><path d="M1390.8461538461538 275.7 L10572.692307692309 919" data-idx="136" style="fill: none; stroke: rgb(61, 97, 255);"></path><path d="M1402.1538461538462 275.7 L10742.307692307691 919" data-idx="137" style="fill: none; stroke: rgb(61, 97, 255);"></path><path d="M1413.4615384615386 275.7 L10911.923076923078 919" data-idx="138" style="fill: none; stroke: rgb(61, 97, 255);"></path><path d="M1424.7692307692307 275.7 L11081.538461538461 919" data-idx="139" style="fill: none; stroke: rgb(61, 97, 255);"></path><path d="M1436.076923076923 275.7 L11251.153846153848 919" data-idx="140" style="fill: none; stroke: rgb(61, 97, 255);"></path><path d="M1447.3846153846155 275.7 L11420.76923076923 919" data-idx="141" style="fill: none; stroke: rgb(61, 97, 255);"></path><path d="M1458.6923076923076 275.7 L11590.384615384617 919" data-idx="142" style="fill: none; stroke: rgb(61, 97, 255);"></path><path d="M1470 275.7 L11760 919" data-idx="143" style="fill: none; stroke: rgb(61, 97, 255);"></path><g data-idx="144" transform="matrix(1,0,0,1,0,2.406917095184326)">
<path d="M0 275.7 L1470 275.7" data-idx="145" style="fill: none; stroke: rgb(61, 97, 255);"></path>


</g><g data-idx="147" transform="matrix(1,0,0,1,0,4.8138346672058105)">
<path d="M0 280.57233136094675 L1470 280.57233136094675" data-idx="148" style="fill: none; stroke: rgb(61, 97, 255);"></path>


</g><g data-idx="150" transform="matrix(1,0,0,1,0,7.2207512855529785)">
<path d="M0 290.3169940828402 L1470 290.3169940828402" data-idx="151" style="fill: none; stroke: rgb(61, 97, 255);"></path>


</g><g data-idx="153" transform="matrix(1,0,0,1,0,9.627668380737305)">
<path d="M0 304.93398816568043 L1470 304.93398816568043" data-idx="154" style="fill: none; stroke: rgb(61, 97, 255);"></path>


</g><g data-idx="156" transform="matrix(1,0,0,1,0,12.034584999084473)">
<path d="M0 324.4233136094674 L1470 324.4233136094674" data-idx="157" style="fill: none; stroke: rgb(61, 97, 255);"></path>


</g><g data-idx="159" transform="matrix(1,0,0,1,0,14.441502571105957)">
<path d="M0 348.78497041420115 L1470 348.78497041420115" data-idx="160" style="fill: none; stroke: rgb(61, 97, 255);"></path>


</g><g data-idx="162" transform="matrix(1,0,0,1,0,16.848419189453125)">
<path d="M0 378.01895857988166 L1470 378.01895857988166" data-idx="163" style="fill: none; stroke: rgb(61, 97, 255);"></path>


</g><g data-idx="165" transform="matrix(1,0,0,1,0,19.25533676147461)">
<path d="M0 412.12527810650886 L1470 412.12527810650886" data-idx="166" style="fill: none; stroke: rgb(61, 97, 255);"></path>


</g><g data-idx="168" transform="matrix(1,0,0,1,0,21.662254333496094)">
<path d="M0 451.1039289940828 L1470 451.1039289940828" data-idx="169" style="fill: none; stroke: rgb(61, 97, 255);"></path>


</g><g data-idx="171" transform="matrix(1,0,0,1,0,24.069169998168945)">
<path d="M0 494.95491124260354 L1470 494.95491124260354" data-idx="172" style="fill: none; stroke: rgb(61, 97, 255);"></path>


</g><g data-idx="174" transform="matrix(1,0,0,1,0,26.476089477539062)">
<path d="M0 543.678224852071 L1470 543.678224852071" data-idx="175" style="fill: none; stroke: rgb(61, 97, 255);"></path>


</g><g data-idx="177" transform="matrix(1,0,0,1,0,28.883005142211914)">
<path d="M0 597.2738698224853 L1470 597.2738698224853" data-idx="178" style="fill: none; stroke: rgb(61, 97, 255);"></path>


</g><g data-idx="180" transform="matrix(1,0,0,1,0,31.2899227142334)">
<path d="M0 655.7418461538462 L1470 655.7418461538462" data-idx="181" style="fill: none; stroke: rgb(61, 97, 255);"></path>


</g><g data-idx="183" transform="matrix(1,0,0,1,0,33.69683837890625)">
<path d="M0 719.0821538461538 L1470 719.0821538461538" data-idx="184" style="fill: none; stroke: rgb(61, 97, 255);"></path>


</g><g data-idx="186" transform="matrix(1,0,0,1,0,36.103755950927734)">
<path d="M0 787.2947928994082 L1470 787.2947928994082" data-idx="187" style="fill: none; stroke: rgb(61, 97, 255);"></path>


</g><g data-idx="189" transform="matrix(1,0,0,1,0,38.51067352294922)">
<path d="M0 860.3797633136094 L1470 860.3797633136094" data-idx="190" style="fill: none; stroke: rgb(61, 97, 255);"></path>


</g><g data-idx="192" transform="matrix(1,0,0,1,0,40.9175910949707)">
<path d="M0 938.3370650887573 L1470 938.3370650887573" data-idx="193" style="fill: none; stroke: rgb(61, 97, 255);"></path>


</g><rect fill="url(#fg-lg-0.6590519274487807)" height="919" width="1470" y="0" x="0" data-idx="195"></rect><g data-idx="196"></g></g><text data-watermark="true" text-anchor="middle" dominant-baseline="middle" stroke-opacity="0.1" fill="black" fill-opacity="0.1" stroke="white" stroke-width="1" font-size="15.0" x="735.0" y="459.5" data-idx="197" style="opacity: 1; font-size: 15px;">LOADING.IO</text></svg>
